<svg xmlns="http://www.w3.org/2000/svg" version="1.1" xmlns:xlink="http://www.w3.org/1999/xlink" xmlns:svgjs="http://svgjs.dev/svgjs" viewBox="0 0 800 800"><g shape-rendering="crispEdges"><g><use xlink:href="#SvgjsSymbol1009" x="343.75" y="250" fill="hsl(129, 95%, 59%)"></use><use xlink:href="#SvgjsSymbol1010" x="343.75" y="250" fill="#7cff84"></use><use xlink:href="#SvgjsSymbol1011" x="343.75" y="250" fill="#00c515"></use></g><g><use xlink:href="#SvgjsSymbol1009" x="343.75" y="93.75" fill="hsl(129, 95%, 59%)"></use><use xlink:href="#SvgjsSymbol1010" x="343.75" y="93.75" fill="#7cff84"></use><use xlink:href="#SvgjsSymbol1011" x="343.75" y="93.75" fill="#00c515"></use></g><g><use xlink:href="#SvgjsSymbol1009" x="406.25" y="312.5" fill="hsl(129, 95%, 59%)"></use><use xlink:href="#SvgjsSymbol1010" x="406.25" y="312.5" fill="#7cff84"></use><use xlink:href="#SvgjsSymbol1011" x="406.25" y="312.5" fill="#00c515"></use></g><g><use xlink:href="#SvgjsSymbol1009" x="281.25" y="312.5" fill="hsl(129, 95%, 59%)"></use><use xlink:href="#SvgjsSymbol1010" x="281.25" y="312.5" fill="#7cff84"></use><use xlink:href="#SvgjsSymbol1011" x="281.25" y="312.5" fill="#00c515"></use></g><g><use xlink:href="#SvgjsSymbol1009" x="218.75" y="375" fill="hsl(129, 95%, 59%)"></use><use xlink:href="#SvgjsSymbol1010" x="218.75" y="375" fill="#7cff84"></use><use xlink:href="#SvgjsSymbol1011" x="218.75" y="375" fill="#00c515"></use></g><g><use xlink:href="#SvgjsSymbol1009" x="468.75" y="375" fill="hsl(129, 95%, 59%)"></use><use xlink:href="#SvgjsSymbol1010" x="468.75" y="375" fill="#7cff84"></use><use xlink:href="#SvgjsSymbol1011" x="468.75" y="375" fill="#00c515"></use></g><g><use xlink:href="#SvgjsSymbol1009" x="406.25" y="31.25" fill="hsl(129, 95%, 59%)"></use><use xlink:href="#SvgjsSymbol1010" x="406.25" y="31.25" fill="#7cff84"></use><use xlink:href="#SvgjsSymbol1011" x="406.25" y="31.25" fill="#00c515"></use></g><g><use xlink:href="#SvgjsSymbol1009" x="281.25" y="31.25" fill="hsl(129, 95%, 59%)"></use><use xlink:href="#SvgjsSymbol1010" x="281.25" y="31.25" fill="#7cff84"></use><use xlink:href="#SvgjsSymbol1011" x="281.25" y="31.25" fill="#00c515"></use></g><g><use xlink:href="#SvgjsSymbol1009" x="468.75" y="0" fill="hsl(129, 95%, 59%)"></use><use xlink:href="#SvgjsSymbol1010" x="468.75" y="0" fill="#7cff84"></use><use xlink:href="#SvgjsSymbol1011" x="468.75" y="0" fill="#00c515"></use></g><g><use xlink:href="#SvgjsSymbol1009" x="218.75" y="0" fill="hsl(129, 95%, 59%)"></use><use xlink:href="#SvgjsSymbol1010" x="218.75" y="0" fill="#7cff84"></use><use xlink:href="#SvgjsSymbol1011" x="218.75" y="0" fill="#00c515"></use></g><g><use xlink:href="#SvgjsSymbol1009" x="156.25" y="437.5" fill="hsl(129, 95%, 59%)"></use><use xlink:href="#SvgjsSymbol1010" x="156.25" y="437.5" fill="#7cff84"></use><use xlink:href="#SvgjsSymbol1011" x="156.25" y="437.5" fill="#00c515"></use></g><g><use xlink:href="#SvgjsSymbol1009" x="531.25" y="437.5" fill="hsl(129, 95%, 59%)"></use><use xlink:href="#SvgjsSymbol1010" x="531.25" y="437.5" fill="#7cff84"></use><use xlink:href="#SvgjsSymbol1011" x="531.25" y="437.5" fill="#00c515"></use></g><g><use xlink:href="#SvgjsSymbol1009" x="343.75" y="375" fill="hsl(129, 100%, 27%)"></use><use xlink:href="#SvgjsSymbol1010" x="343.75" y="375" fill="#4ebb47"></use><use xlink:href="#SvgjsSymbol1011" x="343.75" y="375" fill="#005b00"></use></g><g><use xlink:href="#SvgjsSymbol1009" x="281.25" y="437.5" fill="hsl(129, 100%, 27%)"></use><use xlink:href="#SvgjsSymbol1010" x="281.25" y="437.5" fill="#4ebb47"></use><use xlink:href="#SvgjsSymbol1011" x="281.25" y="437.5" fill="#005b00"></use></g><g><use xlink:href="#SvgjsSymbol1009" x="406.25" y="437.5" fill="hsl(129, 100%, 27%)"></use><use xlink:href="#SvgjsSymbol1010" x="406.25" y="437.5" fill="#4ebb47"></use><use xlink:href="#SvgjsSymbol1011" x="406.25" y="437.5" fill="#005b00"></use></g><g><use xlink:href="#SvgjsSymbol1009" x="343.75" y="500" fill="hsl(129, 100%, 27%)"></use><use xlink:href="#SvgjsSymbol1010" x="343.75" y="500" fill="#4ebb47"></use><use xlink:href="#SvgjsSymbol1011" x="343.75" y="500" fill="#005b00"></use></g><g><use xlink:href="#SvgjsSymbol1009" x="343.75" y="0" fill="hsl(129, 100%, 27%)"></use><use xlink:href="#SvgjsSymbol1010" x="343.75" y="0" fill="#4ebb47"></use><use xlink:href="#SvgjsSymbol1011" x="343.75" y="0" fill="#005b00"></use></g><g><use xlink:href="#SvgjsSymbol1009" x="343.75" y="93.75" fill="hsl(129, 100%, 50%)"></use><use xlink:href="#SvgjsSymbol1010" x="343.75" y="93.75" fill="#70ff64"></use><use xlink:href="#SvgjsSymbol1011" x="343.75" y="93.75" fill="#00ca00"></use></g><g><use xlink:href="#SvgjsSymbol1009" x="406.25" y="62.5" fill="hsl(129, 100%, 50%)"></use><use xlink:href="#SvgjsSymbol1010" x="406.25" y="62.5" fill="#70ff64"></use><use xlink:href="#SvgjsSymbol1011" x="406.25" y="62.5" fill="#00ca00"></use></g><g><use xlink:href="#SvgjsSymbol1009" x="281.25" y="62.5" fill="hsl(129, 100%, 50%)"></use><use xlink:href="#SvgjsSymbol1010" x="281.25" y="62.5" fill="#70ff64"></use><use xlink:href="#SvgjsSymbol1011" x="281.25" y="62.5" fill="#00ca00"></use></g></g><symbol id="SvgjsSymbol1000"><polygon points="0,12.5 25,0 50,12.5 25,25"></polygon></symbol><symbol id="SvgjsSymbol1001"><polygon points="0,12.5 25,25 25,50 0,37.5"></polygon></symbol><symbol id="SvgjsSymbol1002"><polygon points="25,25 50,12.5 50,37.5 25,50"></polygon></symbol><g></g><symbol id="SvgjsSymbol1003"><polygon points="0,18.75 37.5,0 75,18.75 37.5,37.5"></polygon></symbol><symbol id="SvgjsSymbol1004"><polygon points="0,18.75 37.5,37.5 37.5,75 0,56.25"></polygon></symbol><symbol id="SvgjsSymbol1005"><polygon points="37.5,37.5 75,18.75 75,56.25 37.5,75"></polygon></symbol><symbol id="SvgjsSymbol1006"><polygon points="0,25 50,0 100,25 50,50"></polygon></symbol><symbol id="SvgjsSymbol1007"><polygon points="0,25 50,50 50,100 0,75"></polygon></symbol><symbol id="SvgjsSymbol1008"><polygon points="50,50 100,25 100,75 50,100"></polygon></symbol><symbol id="SvgjsSymbol1009"><polygon points="0,31.25 62.5,0 125,31.25 62.5,62.5"></polygon></symbol><symbol id="SvgjsSymbol1010"><polygon points="0,31.25 62.5,62.5 62.5,125 0,93.75"></polygon></symbol><symbol id="SvgjsSymbol1011"><polygon points="62.5,62.5 125,31.25 125,93.75 62.5,125"></polygon></symbol></svg>